<?xml version="1.0" encoding="utf-8"?>
<!-- Generator: Adobe Illustrator 27.3.1, SVG Export Plug-In . SVG Version: 6.00 Build 0)  -->
<svg version="1.1" id="Layer_2" xmlns="http://www.w3.org/2000/svg" xmlns:xlink="http://www.w3.org/1999/xlink" x="0px" y="0px"
	 viewBox="0 0 118.2 122.7" style="enable-background:new 0 0 118.2 122.7;" xml:space="preserve">
<style type="text/css">
	.st0{fill:#FFFFFF;}
	.st1{font-family:'Swiss721BT-BlackExtended';}
	.st2{font-size:15.5618px;}
</style>
<g>
	<g>
		<path class="st0" d="M112.2,14.4c0.2-2.2-1.5-3.9-3.7-3.7l-59.9,4.1c-2.2,0.2-2.7,1.5-1.2,3.1l12.7,12.7c1.6,1.6,1.6,4.1,0,5.7
			L8.3,88c-1.6,1.6-1.6,4.1,0,5.7l20.9,20.9c1.6,1.6,4.1,1.6,5.7,0l51.8-51.8c1.6-1.6,4.1-1.6,5.7,0L105,75.5c1.6,1.6,3,1,3.1-1.2
			L112.2,14.4z"/>
	</g>
	<text transform="matrix(0.7071 -0.7071 0.7071 0.7071 26.6202 103.0393)" class="st1 st2">HOVER</text>
</g>
</svg>
