<?xml version="1.0" encoding="utf-8"?>
<!-- Generator: Adobe Illustrator 27.3.1, SVG Export Plug-In . SVG Version: 6.00 Build 0)  -->
<svg version="1.1" xmlns="http://www.w3.org/2000/svg" xmlns:xlink="http://www.w3.org/1999/xlink" x="0px" y="0px"
	 viewBox="0 0 118.2 122.7" style="enable-background:new 0 0 118.2 122.7;" xml:space="preserve">
<style type="text/css">
	.st0{fill:#2493FF;}
	.st1{fill:#FFFFFF;}
</style>
<g id="Layer_3">
	<rect class="st0" width="118.2" height="122.7"/>
</g>
<g id="Layer_2">
	<g>
		<path class="st1" d="M39.7,78.8c-0.7,0-1.4,0.3-2.1,1c-0.7,0.7-1,1.3-1,2.1c0,0.7,0.4,1.4,1.1,2.1c0.7,0.7,1.4,1,2.1,1.1
			c0.7,0,1.4-0.3,2.1-1c0.7-0.7,1-1.3,1-2.1s-0.4-1.4-1.1-2.1C41.2,79.2,40.5,78.8,39.7,78.8z"/>
		<path class="st1" d="M69.4,48.7c-0.3,0.1-0.7,0.4-1.2,0.9l-1.7,1.7l1.4,1.4l1.8-1.8c0.5-0.5,0.7-0.9,0.8-1.2
			c0.1-0.3,0-0.6-0.3-0.8C70,48.7,69.7,48.6,69.4,48.7z"/>
		<path class="st1" d="M46.2,16.7c0.1,0.1,16.8,16.8,16.8,16.8L34.2,62.1c0,0-26.9,26.9-27.5,27.5C6,90.3,6,91.3,6.7,92
			c0.7,0.7,24.3,24.2,24.4,24.4c0.4,0.4,1.4,0.6,1.8,0.1c0.2-0.3,27.8-27.8,27.8-27.8L89.5,60c2.9,2.9,5.7,5.8,8.6,8.6
			s4.9,4.7,7.7,7.7c0.8,0.9,2.4,0.2,2.5-0.9c0.4-4.2,0.9-15.5,2-31.2c1.1-16.1,2.2-32.1,2.2-32.3c0-0.5-0.2-0.9-0.4-1.1
			c-0.3-0.2-0.7-0.3-1.1-0.3c-0.2,0-11.2,0.8-24.9,1.7c-12.8,0.9-23.3,1.2-38.7,2.2C45.6,14.6,45.4,15.9,46.2,16.7z M34.1,95.6
			l-3.2-3.2l-3.5,3.5l3.2,3.2l-3.1,3.1l-7.9-7.9l3.1-3.1l2.8,2.8l3.5-3.5l-2.8-2.8l3.1-3.1l7.9,7.9L34.1,95.6z M46.9,81
			c-0.2,1.6-1.2,3.3-2.9,5.1s-3.5,2.7-5.1,2.9c-1.6,0.2-3.1-0.4-4.5-1.8c-1.4-1.4-2-2.9-1.8-4.5c0.2-1.6,1.2-3.3,2.9-5.1
			c1.8-1.8,3.5-2.7,5.1-2.9c1.6-0.2,3.1,0.4,4.5,1.8C46.5,77.9,47.1,79.4,46.9,81z M52.4,77.3l-11.5-4.4l3.5-3.5l7,3.6l-3.5-7.1
			l3.4-3.4l4.3,11.6L52.4,77.3z M59.6,70l-7.9-7.9l8.4-8.4l2,2L56.7,61l0.9,0.9l4.3-4.3l2,2l-4.3,4.3l1,1l5.6-5.6l2,2L59.6,70z
			 M75.6,54.1c-0.3-0.1-0.7-0.3-1.2-0.8c-0.3-0.3-0.5-0.5-0.7-0.6c-0.3-0.3-0.6-0.4-0.9-0.3s-0.6,0.3-1,0.6L70,54.8l2.4,2.4
			l-3.1,3.1l-7.9-7.9l6-6c0.7-0.7,1.3-1.2,1.8-1.6c0.5-0.3,0.9-0.6,1.3-0.7c0.5-0.1,0.9-0.1,1.4,0c0.5,0.1,0.9,0.4,1.3,0.8
			c0.5,0.5,0.8,1,0.9,1.6c0.1,0.6,0.1,1.2-0.2,1.7c0.5-0.2,0.9-0.3,1.3-0.2c0.4,0.1,0.8,0.4,1.4,0.9c0.1,0.1,0.2,0.1,0.3,0.2
			c1.1,1,1.8,1.4,2.1,1.3l0.1,0.1L75.6,54.1z"/>
	</g>
</g>
</svg>
