<?xml version="1.0" encoding="utf-8"?>
<!-- Generator: Adobe Illustrator 27.3.1, SVG Export Plug-In . SVG Version: 6.00 Build 0)  -->
<svg version="1.1" id="Layer_1" xmlns="http://www.w3.org/2000/svg" xmlns:xlink="http://www.w3.org/1999/xlink" x="0px" y="0px"
	 viewBox="0 0 118.2 122.7" style="enable-background:new 0 0 118.2 122.7;" xml:space="preserve">
<style type="text/css">
	.st0{fill:#FFFFFF;}
</style>
<g id="Layer_2_00000120534641357967944060000002202067718191527584_">
	<g>
		<path class="st0" d="M56.7,89.6c-0.4,0.4-0.7,1-0.7,1.9c0,0.8,0.2,1.4,0.7,1.9c0.4,0.4,1.1,0.6,1.9,0.6s1.4-0.2,1.9-0.6
			c0.4-0.4,0.7-1,0.7-1.9c0-0.8-0.2-1.4-0.7-1.9C60,89.1,59.4,89,58.6,89C57.8,89,57.1,89.1,56.7,89.6z"/>
		<path class="st0" d="M56.4,53.7c-0.1,0.2-0.2,0.7-0.2,1.3l0,2h1.7l0-2.2c0-0.6-0.1-1-0.2-1.2c-0.1-0.2-0.4-0.4-0.7-0.3
			C56.8,53.4,56.5,53.5,56.4,53.7z"/>
		<path class="st0" d="M23.3,48.4c0.1,0,20.2,0,20.2,0l-0.1,34.5c0,0,0,32.3,0,33c0,0.8,0.6,1.4,1.4,1.4c0.8,0,29.1-0.1,29.3,0
			c0.5,0,1.2-0.5,1.1-1c-0.1-0.3,0-33.4,0-33.4l0.1-34.5c3.5,0,6.9,0.1,10.3,0s5.8-0.1,9.2,0c1,0.1,1.6-1.3,1-2
			c-2.3-2.8-8.8-9.8-17.5-19.9c-9-10.3-17.9-20.6-18.1-20.7c-0.3-0.3-0.7-0.4-0.9-0.4c-0.3,0.1-0.6,0.2-0.8,0.5
			c-0.1,0.1-6.2,7.2-13.9,16C37.4,30,31.3,36.5,22.6,46.3C21.7,47.5,22.3,48.4,23.3,48.4z M63.4,103.1l-3.8,0v4.2h3.8v3.7h-9.5
			l0-3.7h3.4v-4.2h-3.4v-3.7h9.5L63.4,103.1z M62.3,86.6c0.8,1.1,1.3,2.7,1.3,4.8c0.1,2.1-0.5,3.7-1.3,4.8c-0.8,1.1-2.1,1.6-3.8,1.6
			c-1.7,0-2.9-0.5-3.8-1.6c-0.8-1.1-1.3-2.7-1.3-4.8c0-2.2,0.5-3.7,1.3-4.8c0.8-1.1,2.1-1.6,3.8-1.6C60.2,85,61.5,85.5,62.3,86.6z
			 M63.4,81.1l-9.5,4.3v-4.2l6.4-2L53.8,77v-4.1l9.5,4.4V81.1z M63.3,72.4h-9.5V62.3h2.4l-0.1,6.4h1.1v-5.2h2.4v5.2h1.2V62h2.4
			L63.3,72.4z M63.4,53.2c-0.2,0.1-0.6,0.2-1.2,0.2c-0.4,0-0.6,0-0.8,0.1c-0.4,0-0.6,0.1-0.7,0.4s-0.2,0.5-0.2,1V57h2.9v3.7h-9.5
			v-7.2c0-0.8,0.1-1.5,0.1-2c0.1-0.5,0.2-0.9,0.4-1.2c0.2-0.4,0.5-0.6,0.8-0.8c0.4-0.2,0.8-0.3,1.3-0.3c0.6,0,1.1,0.1,1.5,0.4
			s0.8,0.7,0.9,1.1c0.2-0.4,0.4-0.7,0.7-0.9c0.3-0.2,0.7-0.2,1.4-0.3c0.1,0,0.2-0.1,0.3-0.1c1.3-0.1,1.9-0.2,2-0.5h0.1L63.4,53.2z"
			/>
	</g>
</g>
</svg>
